<?xml version="1.0" encoding="UTF-8"?><svg id="Layer_3" xmlns="http://www.w3.org/2000/svg" viewBox="0 0 97.69 98.21"><defs><style>.cls-1{fill:#fff;}</style></defs><path class="cls-1" d="M85.22,50.39c.15-1.39-.15-2.46-.88-3.22-.74-.75-1.56-1.3-2.46-1.65-1.08-.35-2.34-.58-3.79-.69-.76,3.17-2.16,6.52-4.2,10.04-2.04,3.52-4.26,6.84-6.64,9.99-2.39,3.14-4.72,5.94-6.99,8.38-.21,.22-.39,.41-.59,.63-.91,.8-1.85,1.56-2.81,2.28-3.78,2.86-7.74,4.47-11.76,4.8-2.91,.24-5.01-.59-6.43-2.52-1.52-2.08-2.44-4.93-2.73-8.47-.34-4.15,.08-9.02,1.23-14.48,1.09-5.1,2.81-10.48,5.1-15.98,3.16-7.24,7.03-13.4,11.52-18.32,1.67-1.83,3.24-3.36,4.69-4.59,.01-.01,.03-.02,.04-.03,.04-.04,.09-.07,.13-.11,.2-.17,.4-.32,.6-.48,1.61-1.12,4.23-1.84,5.72-.59,1.65,1.38,1.16,4.35,.35,6.37-.63,1.32-1.34,2.69-2.23,4.17-2.49,4.15-5.24,7.9-8.16,11.16-3.49,3.89-5.46,4.95-6.49,5.15-.44,.08-.78,.41-.89,.84s.04,.88,.38,1.17c1.7,1.42,3.71,2.32,6.02,2.69,2.21,.35,3.98,.47,5.42,.35,1.78-.15,3.61-.57,5.46-1.26,3.32-1.31,6.15-3.93,8.42-7.82,1.83-3.26,3.1-6.59,3.79-9.92,.67-3.31,.91-6.26,.71-8.76-.22-2.69-1.19-5.37-2.88-7.98-1.52-2.31-3.69-4.25-6.45-5.76-2.8-1.53-6.3-2.14-10.41-1.8-5.25,.43-10.21,2.11-14.73,4.98-4.47,2.85-8.52,6.54-12.02,10.96-3.5,4.42-6.5,9.36-8.93,14.69s-4.27,10.84-5.47,16.38c-1.23,5.63-1.76,9.85-1.64,12.9,.12,2.95,.2,4.78,.26,5.49,.35,4.28,1.32,8.19,2.88,11.59,1.8,4.16,4.56,7.4,8.18,9.64,1.93,1.19,4.14,2,6.62,2.44,2.19,.38,4.58,.47,7.17,.26,6.15-.5,12.62-4.3,18.43-9.32,.73-.59,1.49-1.23,2.3-2.01,.66-.64,1.34-1.33,2.02-2.06,2.67-2.73,5.13-5.62,7.22-8.43,1.98-2.39,3.26-4.09,4.3-5.82,1.5-2.04,3.03-4.17,4.6-6.43m9.29,15.03"/></svg>